<svg xmlns="http://www.w3.org/2000/svg" fill="none" viewBox="0 0 96 96" height="96" width="96">
  <rect x="8" y="8" width="80" height="80" rx="16" fill="white" fill-opacity="0.95"/>
  <g transform="translate(16,16)">
    <path fill="currentColor" d="M2.22309 59.9744C3.45071 59.9744 4.44618 58.979 4.44618 57.7523C4.44618 56.5237 3.45071 55.5292 2.22309 55.5292C0.99547 55.5292 0 56.5237 0 57.7523C0 58.979 0.99547 59.9744 2.22309 59.9744Z"></path>
    <path fill="currentColor" d="M2.22309 51.8241C3.45071 51.8241 4.44618 50.8296 4.44618 49.601C4.44618 48.3734 3.45071 47.3779 2.22309 47.3779C0.99547 47.3779 0 48.3734 0 49.601C0 50.8296 0.99547 51.8241 2.22309 51.8241Z"></path>
    <path fill="currentColor" d="M34.3594 52.0797C34.8534 50.319 36.338 49.4401 38.1531 49.4401C40.0772 49.4401 41.4519 50.319 41.6736 52.0797H34.3594ZM44.8893 54.856C45.4128 49.2748 42.5802 46.4709 38.0433 46.4709C33.6439 46.4709 30.8399 49.4401 30.8399 53.5643C30.8399 57.9083 33.6171 60.7953 38.2907 60.7953C40.3542 60.7953 42.691 60.0808 44.1192 58.5952L41.9764 56.4781C41.2054 57.2759 39.5833 57.743 38.3461 57.743C35.9816 57.743 34.5238 56.5326 34.3031 54.856H44.8893ZM16.9817 46.855L14.0402 57.0561L10.9325 46.855H7.19324L11.9509 60.4925H15.8544L17.2568 56.4781L18.4673 51.9422L19.6767 56.4781L21.0782 60.4925H24.9837L29.7117 46.855H26.0002L22.8943 57.0561L19.9242 46.855H16.9817Z"></path>
    <path fill="currentColor" d="M56.3572 24.3091V27.8009H53.8284V30.6879H56.3572V36.5451C56.3572 39.9271 58.2822 41.6037 61.2228 41.4938C62.2412 41.4652 63.0389 41.3008 64 40.9158L63.0657 38.0575C62.5718 38.3039 61.967 38.4682 61.4444 38.4682C60.3993 38.4682 59.6847 37.8358 59.6847 36.5451V30.6879H63.4516V27.8009H59.7124V23.9508L56.3572 24.3091ZM45.8446 32.3655L43.1773 27.7732H39.1639V27.883L43.6177 34.4548L38.8878 41.2464V41.3286H42.9041L45.8446 36.7916L48.7871 41.3286H52.8014V41.2464L48.0725 34.4548L52.5263 27.883V27.7732H48.5119L45.8446 32.3655ZM27.4246 32.9702C27.9185 31.2105 29.4031 30.3306 31.2173 30.3306C33.1433 30.3306 34.5161 31.2105 34.7378 32.9702H27.4246ZM37.9544 35.7474C38.477 30.1653 35.6444 27.3614 31.1084 27.3614C26.709 27.3614 23.9041 30.3306 23.9041 34.4548C23.9041 38.7988 26.6813 41.6859 31.3549 41.6859C33.4184 41.6859 35.7552 40.9713 37.1834 39.4866L35.0387 37.3686C34.2706 38.1664 32.6475 38.6335 31.4103 38.6335C29.0458 38.6335 27.588 37.4241 27.3682 35.7474H37.9544ZM21.2645 41.3286V34.2065C21.2645 29.9456 18.7071 27.5534 15.5181 27.5534C13.8138 27.5534 12.439 28.2403 11.0643 29.5883L10.8436 27.7455H7.84766V41.3286H11.1742V34.3994C11.1742 32.3368 12.5757 30.6048 14.6392 30.6048C16.784 30.6048 17.9103 32.1735 17.9103 34.2351V41.3286H21.2645Z"></path>
    <path fill="currentColor" d="M39.0369 13.8881C39.5308 12.1274 41.0154 11.2485 42.8306 11.2485C44.7546 11.2485 46.1294 12.1274 46.3501 13.8881H39.0369ZM49.5667 16.6643C50.0893 11.0832 47.2567 8.27927 42.7207 8.27927C38.3204 8.27927 35.5165 11.2485 35.5165 15.3727C35.5165 19.7167 38.2936 22.6047 42.9672 22.6047C45.0298 22.6047 47.3675 21.8891 48.7967 20.4036L46.652 18.2865C45.882 19.0842 44.2588 19.5523 43.0226 19.5523C40.6572 19.5523 39.2012 18.3419 38.9805 16.6643H49.5667ZM19.7351 3.00003V22.2464H23.0884V15.3163C23.0884 13.2824 24.4631 11.6048 26.4435 11.6048C28.231 11.6048 29.5226 12.65 29.5226 15.1253V22.2464H32.8768V15.0976C32.8768 11.1109 31.1725 8.49804 27.3234 8.49804C25.7834 8.49804 24.2988 8.96616 23.0884 10.5329V3.00003H19.7351ZM9.3591 5.22694V8.71873H6.82935V11.6048H9.3591V17.4611C9.3591 20.844 11.2841 22.5216 14.2256 22.4117C15.2431 22.383 16.0408 22.2187 17.0028 21.8328L16.0675 18.9744C15.5727 19.2218 14.9679 19.3871 14.4463 19.3871C13.4012 19.3871 12.6856 18.7546 12.6856 17.4611V11.6048H16.4535V8.71873H12.7133V4.86964L9.3591 5.22694Z"></path>
  </g>
</svg>
